PathFileType	4	(X/Y/Z)	Walk1_0-155.trc
DataRate	CameraRate	NumFrames	NumMarkers	Units	OrigDataRate	OrigDataStartFrame	OrigNumFrames
30	30	8	22	m	30	116	155
Frame#	Time	Hip			RHip			RKnee			RAnkle			RBigToe			RSmallToe			RHeel			LHip			LKnee			LAnkle			LBigToe			LSmallToe			LHeel			Neck			Head			Nose			RShoulder			RElbow			RWrist			LShoulder			LElbow			LWrist		
		X1	Y1	Z1	X2	Y2	Z2	X3	Y3	Z3	X4	Y4	Z4	X5	Y5	Z5	X6	Y6	Z6	X7	Y7	Z7	X8	Y8	Z8	X9	Y9	Z9	X10	Y10	Z10	X11	Y11	Z11	X12	Y12	Z12	X13	Y13	Z13	X14	Y14	Z14	X15	Y15	Z15	X16	Y16	Z16	X17	Y17	Z17	X18	Y18	Z18	X19	Y19	Z19	X20	Y20	Z20	X21	Y21	Z21	X22	Y22	Z22
117	3.9	1.0002563357117942	0.905336473129576	0.41054417038853996	0.9802179814757683	0.8794928319396849	0.5231176330608671	0.9123630944464408	0.5184649651001555	0.4838850272713821	0.8530446587066847	0.1110541619807662	0.44422488264522086	1.0569977741007253	0.03762362737975087	0.4630039601441541	1.0063036563115926	0.02810052066743178	0.5123539083590406	0.8052151914715817	0.03693140671530057	0.4263776326834382	1.0168373838167615	0.8838676538078768	0.30351031554252766	1.2143556726579081	0.5632852597845429	0.31789350922983856	1.0423353208563562	0.2108500776291396	0.31977015746143744	1.1983908198707605	0.080363872171986	0.3096638623294602	1.163354639070899	0.08697461411780424	0.26268145445995544	0.9921235639173996	0.1508974022539139	0.3330066678830122	0.9115376105626547	1.5922312701861094	0.3951667541734468	0.9838761011449375	1.8433727895591188	0.4218752532512263	1.1046180764394182	1.6781562094947606	0.4093472886215154	0.8891643142829795	1.4671433813150916	0.5754212016905266	1.0047698350763465	1.1771612785767671	0.6503755577941313	1.2659697198332691	0.9688774526636209	0.6516660028081785	0.9269325751107873	1.4774354336406483	0.23589049713803306	0.8691436913954812	1.1579226525950637	0.16172396098692057	0.9134705760314482	0.900601337604476	0.1300612602428431
118	3.933333333333333	1.0373129322662442	0.9019929928764422	0.4094725558897389	1.0140209390582873	0.8772722540589892	0.5216706165102273	0.9276960736179615	0.5172401944573226	0.48342986348593964	0.8548091738072601	0.11133911625689766	0.44399060393262957	1.0584965944608804	0.03502486196160107	0.4680737994071604	1.0085335545656406	0.02891347479539406	0.5166106868287377	0.8066506571353721	0.04037294499133155	0.4231194275003738	1.0580266237889422	0.879762526592931	0.30383249256063644	1.2657776622030623	0.5577013644797165	0.32590884929241926	1.1614206808408463	0.17942327443475153	0.32026554036337795	1.348758088229493	0.08628981146780623	0.3111958563297252	1.3112397166138199	0.08405885302709294	0.26591645933409896	1.121647789378477	0.10986420037112135	0.3318230068817194	0.9538713629218665	1.590261757685782	0.39515775535250997	1.0252373801891879	1.8410586654553769	0.41910146551921335	1.1467898387404363	1.6723894785592042	0.41099500121865806	0.9336542230584114	1.4662899906258593	0.5759196675278783	1.0591951605491514	1.1803251812961029	0.6538360551436466	1.3307302832551273	0.9870617848998194	0.6543645469226955	0.9710181008771713	1.4738647223282733	0.2401513236518981	0.9046397736141282	1.1545800407750553	0.16292864907845245	0.9395843286441807	0.8961327932725253	0.12318187622833429
119	3.966666666666667	1.0767438365045785	0.896052537170543	0.4086822689580864	1.050927209297548	0.8718283726270418	0.5196615663118755	0.946596468859502	0.5142385071623108	0.482853015457102	0.8564133014317657	0.11257278014518299	0.4442248218656646	1.060620046047497	0.0315461350499487	0.47113494425132046	1.0117902889028114	0.02838818015090646	0.5183865245797564	0.8069468920726527	0.04433609568438311	0.42148323617930505	1.1000219692620266	0.8721804693524784	0.30495272050683037	1.3103578467386918	0.5459130162962945	0.3320426146710789	1.2752426146612197	0.15401277869154528	0.31955031281440804	1.4850189155721887	0.09561829828540827	0.31071421518476877	1.44598452918745	0.08605439566752991	0.2662857647494312	1.2449187539809978	0.07751294508086502	0.32831154791986117	0.9973865619719217	1.5854879457248376	0.3947091156902929	1.0669524604815588	1.8357624220730577	0.4164621746296661	1.1916332198557218	1.6663540759182938	0.4087975488396592	0.9784067477303147	1.4625640172758883	0.5753301435641286	1.111269444452626	1.1798920045091459	0.6557812786931401	1.388202743222746	1.0017754262206267	0.6558468648121979	1.0161003062155625	1.467657115938496	0.24318430840260244	0.9463908221350513	1.1487382905035464	0.16508912012635407	0.9690292194487758	0.890219065303923	0.11672145254577417
120	4.0	1.1189991530405168	0.8881781728992683	0.4081044178272782	1.0913463029802337	0.8640658413426261	0.5174073464792637	0.9706297425666843	0.5101505360803951	0.4824089151833862	0.8582226662427402	0.11573746755971594	0.44499428236474775	1.0625818343936908	0.028492499255889887	0.4718436151656886	1.0142776655929242	0.02720061627099014	0.5175495503998103	0.8061257381981368	0.04968531734948741	0.42189754806190516	1.1432361962672544	0.8623480187525111	0.30634144569851557	1.351984445454507	0.5313882557301977	0.33700362988729926	1.3773210549505706	0.13551847306760922	0.3186257758305256	1.5996253567394432	0.10611598608200438	0.3089912235110149	1.5602056182684574	0.090870464810017	0.2646066272093987	1.3553274026502868	0.05437510104677154	0.3240124977229556	1.0414430869517435	1.578463505668519	0.3931326944726055	1.1096682856418632	1.8282733876336867	0.4145214867324645	1.2384618700486087	1.660708444907194	0.402819209870704	1.023438928457404	1.4563892942117893	0.5734099527679677	1.1609314054440212	1.176132263625896	0.6557885505387048	1.4412194991644718	1.0117216931336128	0.6546853143454324	1.0619955532653313	1.4597834340246825	0.24461954448585038	0.9934454183198747	1.1410138280625506	0.16875358705449692	1.0027199351469638	0.8829117652904713	0.11069353484017928
121	4.033333333333333	1.1643292965120828	0.8792577255867177	0.4075623963379231	1.1353784987402007	0.855377000456882	0.5152918967944021	1.001581051426047	0.5054427987782119	0.4822871462072426	0.8611478327816844	0.12190529982814026	0.44612590575341904	1.0631153608794948	0.026173016352626397	0.47077363639810765	1.0142147288353525	0.02601379761702729	0.5144642720929921	0.8047034667085439	0.058024460956749166	0.42383798180090665	1.188316538804483	0.8519741356350546	0.30739262461660705	1.393683728691404	0.5178763375633213	0.34099068304912405	1.4622391068502556	0.12234618126080372	0.3183940334408825	1.6888840214178191	0.1127245275116668	0.30797261309797114	1.6505900289947888	0.09353073525696397	0.26314135104397385	1.4468126589763646	0.038481650312480735	0.32062660684008887	1.0856436689517044	1.570062167910396	0.39013504413027333	1.1539522898925951	1.8196680469072455	0.41348201638239135	1.2860436504768722	1.656013399834062	0.39407263313701174	1.0685985498916086	1.448534533991082	0.5700603609927096	1.2080321586870928	1.169625949384022	0.6537540083285446	1.4905418203603378	1.0161375151601637	0.6510024321389367	1.108516101777187	1.4513835603134473	0.24459081101577834	1.0440817344714113	1.132125130965971	0.1734692825782555	1.042735966722883	0.8740181533777965	0.10413696787279117
122	4.066666666666666	1.212759610276974	0.8703354037808145	0.4066434224427942	1.1828768650503243	0.847294477537202	0.5134199278717013	1.0412966950828155	0.5003951189633166	0.4826682626500467	0.8671689220329619	0.1323712207396059	0.44762090798454335	1.060717817945758	0.024006478426806404	0.46871681705571905	1.0106781289293467	0.025410967287261017	0.5099462180840991	0.8043350700800679	0.07165013315816306	0.42613111415245253	1.2358010875788956	0.8428201184706727	0.30742095757096616	1.4366156325589385	0.5079869348351481	0.34346658838566113	1.527189871316781	0.1124105628672811	0.3191367813048098	1.7530328237598023	0.11102278869699254	0.3089781929522095	1.71747355087947	0.08955134999172146	0.26383358929020406	1.5155581077291416	0.027504361981611852	0.31924074571174005	1.1297873619290766	1.5613884049518965	0.38582879202194764	1.2001753835510358	1.8111759926634787	0.4132359019392469	1.333131490913414	1.6525071589254037	0.384236595973035	1.1136339949356187	1.4400687142826647	0.5653894945209382	1.2525004432584765	1.1612493723900823	0.649778554039431	1.5355715164492663	1.0147280373972727	0.6456615914278638	1.1551958005053016	1.443520241666536	0.2434282153625114	1.0964652692049477	1.1230184091408482	0.17772828420397704	1.090878711490271	0.8638837219469153	0.09672047992006472
123	4.1	1.2639496004216222	0.8625566767412614	0.40482139442148746	1.233616090222855	0.8410426215742534	0.5115665153636623	1.0913179429104585	0.4953603442847243	0.4837758388763764	0.8795040576585622	0.14860465756397323	0.44985250368725616	1.0550037265643155	0.021600510164236846	0.4662533770828111	1.0044198309546681	0.02619881007099395	0.5052401512518866	0.8083810310815892	0.09293046488658871	0.42788238863039063	1.2856213544281179	0.8362199520815402	0.30581634863168555	1.4798690767714655	0.5025110777251288	0.3434095524322472	1.572536160078333	0.10461324827546192	0.32052780779497486	1.7953154525011745	0.10007473204525656	0.31190794686910195	1.7636790860638836	0.07762761556673016	0.2672096256024803	1.5611810119729945	0.020163298075251204	0.3199866796258524	1.1736931743900259	1.5536558342031348	0.38059712335131385	1.2480750423567664	1.8040036597512459	0.4133320706274853	1.3788135023967119	1.650165602932663	0.3750950992509813	1.158292572800943	1.4321951444722343	0.5597752445521167	1.2944663545963129	1.1521621448854467	0.6440934170841983	1.5751499750624387	1.0076932587501821	0.6395308386687109	1.2011959204889218	1.437043033901839	0.24131644236249014	1.1490783144790848	1.114785488687746	0.17997876446018116	1.1472182877666093	0.8538731609429012	0.09003498790230868
124	4.133333333333334	1.3170716326668541	0.8570368691873528	0.40177649798909254	1.2872913359820153	0.837398666222227	0.5094352489620543	1.1522890387919325	0.4909829686793921	0.48582162885512076	0.9017927977695734	0.1716496874743341	0.4531928819863836	1.0480054861690522	0.01934065200463942	0.46388027406211746	0.9984823782787678	0.02935723750199739	0.5017816828458697	0.8214578196647938	0.12324855754689522	0.42913534914633616	1.3368567579448452	0.8328753412072425	0.30234369042540993	1.5209956519667236	0.500640026975017	0.3399184450311617	1.6011141525461834	0.09880584061965594	0.32198455874826926	1.8206904409763205	0.0826743008148799	0.31592515256152454	1.7931691658752056	0.06008479851998119	0.2725493199652279	1.5869093499700457	0.015974991273589527	0.3222339057681696	1.217113387608141	1.54799435488758	0.3749625314870191	1.2963516947771327	1.7991119894784824	0.4129355668775574	1.4226480293573442	1.6490728462452542	0.36780932560649054	1.2023422300696904	1.426105271835885	0.553772822989091	1.3341074814530995	1.143737425223022	0.6370745871307425	1.6079356806151477	0.995793237470044	0.6333939836190892	1.245673068524931	1.4326507765334389	0.23827855699039613	1.2006361745512033	1.108369174836469	0.17930388447028023	1.209988794780029	0.8458720726158284	0.08706041589586105
